<?xml version="1.0" encoding="utf-8"?>
<!-- Generator: Adobe Illustrator 25.4.1, SVG Export Plug-In . SVG Version: 6.00 Build 0)  -->
<svg version="1.1" id="Layer_1" xmlns="http://www.w3.org/2000/svg" xmlns:xlink="http://www.w3.org/1999/xlink" x="0px" y="0px"
	 viewBox="0 0 99.2 46.4" style="enable-background:new 0 0 99.2 46.4;" xml:space="preserve">
<style type="text/css">
	.st0{fill:#4E2F20;}
</style>
<g>
	<g>
		<path class="st0" d="M65.3,25.4c0-3,0-5.9,0-8.9c0.1,0,0.1,0,0.2,0c1.3,0,2.6,0,3.8,0c0.8,0,1.5,0.3,2.1,0.9
			c0.7,0.6,1.1,1.4,1.3,2.4c0.1,0.7,0.2,1.4,0.1,2.1c-0.2,1.2-0.8,2.3-1.9,3c-0.5,0.3-1.1,0.5-1.7,0.5c-1.2,0-2.4,0-3.7,0
			C65.5,25.4,65.4,25.4,65.3,25.4z M68.3,25.1c0.5,0.1,0.8,0,1-0.4c0.2-0.5,0.3-1,0.3-1.5c0.1-1.5,0.1-2.9,0-4.4
			c0-0.4-0.1-0.9-0.3-1.3c-0.2-0.4-0.7-0.7-1.1-0.5C68.3,19.6,68.3,22.3,68.3,25.1z"/>
		<path class="st0" d="M54.1,16.5c0,3,0,5.9,0,8.9c-1.1,0-2.1,0-3.2,0c0-1.5,0-2.9,0-4.4c-0.8,0-1.5,0-2.2,0
			c0.1,0.2,0.2,0.3,0.3,0.5c0.3,0.7,0.7,1.3,1,2c0.2,0.5,0.3,1,0.2,1.6c0,0.1-0.1,0.2-0.1,0.3c-1,0-2,0-3,0c0-0.1,0-0.1,0-0.1
			c0-2,0-4,0-6.1c0-0.7,0.3-1.4,0.8-1.9s1.1-0.8,1.8-0.8C51.1,16.5,52.6,16.6,54.1,16.5C54,16.5,54,16.5,54.1,16.5z M50.9,16.9
			C50.8,16.9,50.8,16.9,50.9,16.9c-0.5,0-1,0-1.4,0c-0.2,0-0.5,0.1-0.7,0.2c-0.5,0.3-0.7,0.8-0.8,1.4c-0.1,0.7,0.2,1.3,0.4,1.9
			c0.1,0.2,0.2,0.2,0.4,0.2c0.6,0,1.2,0,1.9,0c0.2,0,0.3,0,0.3-0.3c0-1.1,0-2.2,0-3.3C50.9,17,50.9,17,50.9,16.9z"/>
		<path class="st0" d="M77.1,21c-0.8,0-1.5,0-2.2,0c0.1,0.2,0.2,0.3,0.2,0.5c0.3,0.6,0.7,1.2,1,1.8c0.2,0.5,0.4,1.1,0.3,1.7
			c0,0.1-0.1,0.3-0.1,0.4c-1,0-2,0-3.1,0c0-0.1,0-0.1,0-0.2c0-1.9,0-3.7,0-5.6c0-0.7,0.1-1.4,0.6-2c0.4-0.6,0.9-0.9,1.6-1
			c0.3,0,0.6-0.1,0.9-0.1c1.2,0,2.5,0,3.7,0c0.1,0,0.1,0,0.2,0c0,3,0,5.9,0,8.9c-1,0-2.1,0-3.2,0C77.1,23.9,77.1,22.5,77.1,21z
			 M77.1,16.9L77.1,16.9c-0.5,0-1,0-1.4,0c-0.2,0-0.5,0.1-0.7,0.2c-0.7,0.4-0.9,1.4-0.7,2.1c0.1,0.4,0.3,0.8,0.4,1.2
			c0,0.2,0.1,0.2,0.3,0.2c0.7,0,1.3,0,2,0c0.1,0,0.1,0,0.2,0C77.1,20.5,77.2,17.2,77.1,16.9z"/>
		<path class="st0" d="M22.5,20.6c-0.4-0.3-0.7-0.7-0.9-1.1c-0.3-0.5-0.4-1.1-0.3-1.7c0.1-0.4,0.3-0.8,0.7-1.1
			c0.1-0.1,0.3-0.2,0.4-0.2c1.9,0,3.8,0,5.7,0c0,0,0,0,0.1,0c0.3,0.4,0.2,1-0.1,1.4c-0.5,0.6-1.1,0.7-1.8,0.6
			c-0.8-0.2-1.4-0.6-2.1-0.9c-0.4-0.2-0.9-0.5-1.4-0.7c-0.2,0-0.3-0.1-0.5,0.1c-0.1,0.1-0.1,0.3,0.1,0.6c0.2,0.3,0.4,0.4,0.8,0.6
			c0.5,0.2,1,0.4,1.6,0.6c0.9,0.3,1.7,0.6,2.5,1.1c0.6,0.4,1.1,1,1.3,1.7c0.1,0.4,0.2,0.9,0.1,1.4c-0.1,1.2-0.9,2.1-2,2.5
			c-0.9,0.3-1.8,0.3-2.7,0.1c-0.9-0.2-1.7-0.6-2.2-1.4c-0.4-0.6-0.6-1.3-0.4-2.1c0.1-0.6,0.6-1.1,1.1-1.4
			C22.4,20.7,22.4,20.6,22.5,20.6z M22.8,20.8c0,0.1,0,0.1,0,0.2c0.1,0.3,0.2,0.7,0.4,1c0.5,1,1.2,1.8,2.2,2.4
			c0.4,0.2,0.9,0.4,1.4,0.3c0.4-0.1,0.8-0.3,0.6-0.8c0-0.2-0.2-0.4-0.3-0.6c-0.4-0.4-0.9-0.7-1.3-0.9c-0.9-0.5-1.9-0.9-2.8-1.6
			C23,20.9,22.9,20.9,22.8,20.8z"/>
		<path class="st0" d="M39.4,17.3c-0.6,1.6-1.1,3.1-1.6,4.7l0,0c0-0.1-0.1-0.1-0.1-0.2c-0.1-0.6-0.2-1.1-0.3-1.7
			c-0.2-0.9-0.5-1.8-1.1-2.6c-0.2-0.3-0.4-0.5-0.8-0.6c-0.6-0.2-1,0.1-1.2,0.6c-0.2,0.4-0.1,0.9-0.1,1.4c0.1,1,0.3,2,0.9,2.8
			c0.5,0.7,1.1,1.2,2,1.6c0.6,0.2,1.1,0.2,1.7,0.1c0.3-0.1,0.5-0.2,0.7-0.4c0,0.1,0,0.2,0,0.2c0,0.8-0.3,1.3-0.9,1.7
			c-0.8,0.6-1.6,0.8-2.6,0.8c-1.3,0-2.4-0.6-3.2-1.6c-0.3-0.4-0.6-0.9-0.7-1.4c-0.2-0.8-0.3-1.7-0.2-2.5c0.2-1.4,0.9-2.6,2.1-3.3
			c0.8-0.5,1.8-0.6,2.7-0.5c0.5,0.1,1,0.1,1.6,0.3C38.7,16.8,39,17,39.4,17.3z"/>
		<path class="st0" d="M60,21.3c0.1-0.1,0.1-0.1,0.1-0.2c0.2-0.5,0.2-1,0.2-1.4c-0.1-0.4-0.2-0.8-0.3-1.1c-0.1-0.4-0.3-0.8-0.5-1.2
			c0-0.1,0-0.3,0-0.5s0.2-0.3,0.4-0.3c1,0,2,0,3,0c0,0,0.1,0,0.2,0c-0.1,0.2-0.2,0.3-0.2,0.4c-0.8,1.6-1.7,3.1-2.5,4.7
			c0,0.1-0.1,0.2-0.1,0.3c0,1.1,0,2.1,0,3.2c0,0.1,0,0.1,0,0.2c-1,0-2,0-3.1,0c0-0.1,0-0.1,0-0.2c0-1.1,0-2.1,0-3.2
			c0-0.2-0.1-0.4-0.2-0.6c-0.6-1.1-1.2-2.2-1.7-3.2c-0.3-0.6-0.6-1.1-0.9-1.6c0,0,0,0,0-0.1c0.1,0,0.1,0,0.2,0c0.9,0,1.8,0,2.7,0
			c0.1,0,0.2,0,0.3,0.2c0.6,1.1,1.2,2.1,1.8,3.2C59.5,20.3,59.7,20.8,60,21.3z"/>
		<path class="st0" d="M80.5,16.5c1,0,2.1,0,3.1,0c0.9,1.6,1.7,3.2,2.6,4.8l0.1-0.1c0.2-0.6,0.2-1.1,0.1-1.7
			c-0.1-0.7-0.4-1.2-0.7-1.8c-0.1-0.2-0.2-0.5-0.1-0.8c0-0.2,0.2-0.4,0.4-0.4c1,0,2,0,2.9,0c0,0,0.1,0,0.2,0c0,0.1,0,0.1,0,0.1
			c-0.9,1.6-1.7,3.2-2.6,4.8c-0.1,0.2-0.2,0.4-0.2,0.7c0,1,0,2,0,3c0,0.1,0,0.1,0,0.2c-1,0-2,0-3.1,0c0-0.1,0-0.2,0-0.2c0-1,0-2,0-3
			c0-0.3-0.1-0.7-0.3-0.9c-0.6-1-1.1-2-1.7-3.1c-0.3-0.5-0.5-1-0.8-1.5C80.6,16.7,80.6,16.6,80.5,16.5z"/>
		<path class="st0" d="M46.5,21c0,1.5,0,2.9,0,4.4c-2.2,0-4.5,0-6.7,0c0-3,0-5.9,0-8.9c1.1,0,2.1,0,3.2,0c0,2.9,0,5.7,0,8.5
			c0.1,0,0.2,0,0.3,0c1.1-0.3,1.9-1,2.5-2c0.3-0.6,0.5-1.3,0.6-2C46.4,21.1,46.4,21,46.5,21L46.5,21z"/>
		<path class="st0" d="M20.8,16.5c0,1.9,0,3.8,0,5.7c-0.1,0-0.1,0-0.2,0c0-0.1,0-0.1,0-0.2c-0.1-0.5-0.1-1-0.2-1.6
			c-0.2-0.8-0.5-1.6-1-2.2C19,17.7,18.5,17.3,18,17c-0.2-0.1-0.3-0.1-0.6-0.2c0,1.5,0.3,3,0.7,4.5c0.4,1.4,0.9,2.9,1.7,4.2
			c-1.7,0-3.4,0-5,0c1.4-2.5,2-5.2,2.3-8c0-0.2,0-0.4,0-0.6c0,0,0,0-0.1,0c-0.2,0.1-0.4,0.2-0.7,0.3c-0.9,0.6-1.5,1.3-1.9,2.2
			c-0.4,0.9-0.6,1.8-0.6,2.7c0,0,0,0.1,0,0.2c-0.1,0-0.1,0-0.2,0c0-1.9,0-3.8,0-5.7C16,16.5,18.4,16.5,20.8,16.5z"/>
		<path class="st0" d="M13.1,25.4c-1.1,0-2.1,0-3.2,0c0-3,0-5.9,0-8.9c1,0,2.1,0,3.2,0C13.1,19.5,13.1,22.4,13.1,25.4z"/>
		<path class="st0" d="M30.2,23c0.8,0,1.3,0.5,1.3,1.3s-0.6,1.3-1.3,1.3c-0.8,0-1.3-0.6-1.3-1.3C28.9,23.5,29.4,23,30.2,23z"/>
		<path class="st0" d="M63.1,23c0.8,0,1.3,0.5,1.3,1.3s-0.6,1.3-1.3,1.3s-1.3-0.6-1.3-1.3S62.4,23,63.1,23z"/>
	</g>
	<g>
		<path class="st0" d="M43.9,29.2c0-0.1-0.1-0.1-0.1-0.1c-0.1,0-0.1-0.1-0.2-0.1s-0.1,0-0.2-0.1c-0.1,0-0.2-0.1-0.3-0.1
			c-0.1,0-0.2-0.1-0.2-0.1c-0.1-0.1-0.1-0.1-0.2-0.2c0-0.1-0.1-0.2-0.1-0.3s0-0.2,0.1-0.3c0-0.1,0.1-0.2,0.2-0.2
			c0.1-0.1,0.2-0.1,0.3-0.1c0.1,0,0.2,0,0.3,0c0.1,0,0.2,0,0.3,0.1c0.1,0,0.2,0.1,0.3,0.1c0.1,0.1,0.1,0.1,0.2,0.2
			c0,0.1,0.1,0.2,0.1,0.3h-0.3c0-0.1,0-0.1-0.1-0.2c0-0.1-0.1-0.1-0.1-0.1c0,0-0.1-0.1-0.2-0.1c-0.1,0-0.1,0-0.2,0
			c-0.1,0-0.1,0-0.2,0s-0.1,0-0.1,0.1c0,0-0.1,0.1-0.1,0.1c0,0,0,0.1,0,0.2c0,0.1,0,0.1,0.1,0.2c0,0,0.1,0.1,0.1,0.1
			c0.1,0,0.1,0.1,0.2,0.1s0.1,0,0.2,0.1c0.1,0,0.2,0.1,0.3,0.1c0.1,0,0.2,0.1,0.2,0.2c0.1,0.1,0.1,0.1,0.2,0.2
			c0,0.1,0.1,0.2,0.1,0.3c0,0.1,0,0.2-0.1,0.3s-0.1,0.1-0.2,0.2c-0.1,0.1-0.2,0.1-0.3,0.1s-0.2,0-0.3,0c-0.1,0-0.2,0-0.3-0.1
			c-0.1,0-0.2-0.1-0.3-0.2c-0.1-0.1-0.1-0.1-0.2-0.2c0-0.1-0.1-0.2-0.1-0.3h0.3c0,0.1,0,0.1,0.1,0.2c0,0.1,0.1,0.1,0.1,0.1
			c0,0,0.1,0.1,0.2,0.1c0.1,0,0.1,0,0.2,0c0.1,0,0.1,0,0.2,0c0.1,0,0.1,0,0.2-0.1c0,0,0.1-0.1,0.1-0.1c0,0,0-0.1,0-0.2
			C43.9,29.3,43.9,29.2,43.9,29.2z"/>
		<path class="st0" d="M46,27.8V30h-0.3v-2.2H45v-0.3h1.8v0.3H46z"/>
		<path class="st0" d="M49.1,29.2c0,0.1,0,0.2-0.1,0.3s-0.1,0.2-0.2,0.3c-0.1,0.1-0.2,0.1-0.2,0.2c-0.1,0-0.2,0.1-0.3,0.1
			c-0.1,0-0.2,0-0.3-0.1c-0.1,0-0.2-0.1-0.2-0.2c-0.1-0.1-0.1-0.2-0.2-0.3c0-0.1-0.1-0.2-0.1-0.3l0-1.6h0.3l0,1.6c0,0.1,0,0.1,0,0.2
			c0,0.1,0.1,0.1,0.1,0.2c0,0.1,0.1,0.1,0.2,0.1c0.1,0,0.1,0,0.2,0c0.1,0,0.1,0,0.2,0c0.1,0,0.1-0.1,0.2-0.1c0-0.1,0.1-0.1,0.1-0.2
			s0-0.1,0-0.2l0-1.6h0.3L49.1,29.2z"/>
		<path class="st0" d="M50.1,27.5h0.6c0.1,0,0.2,0,0.3,0s0.2,0,0.2,0.1c0.1,0,0.2,0.1,0.3,0.2c0.1,0.1,0.1,0.2,0.2,0.3
			c0,0.1,0.1,0.2,0.1,0.3c0,0.1,0,0.2,0,0.3v0.2c0,0.1,0,0.2,0,0.3s0,0.2-0.1,0.3c0,0.1-0.1,0.2-0.2,0.2c-0.1,0.1-0.1,0.1-0.2,0.2
			c-0.1,0-0.2,0.1-0.3,0.1c-0.1,0-0.2,0-0.3,0h-0.6V27.5z M50.4,29.7h0.2c0.1,0,0.2,0,0.2,0c0.1,0,0.1-0.1,0.2-0.1
			c0.1,0,0.1-0.1,0.2-0.1s0.1-0.1,0.1-0.2c0-0.1,0-0.1,0.1-0.2c0-0.1,0-0.1,0-0.2v-0.2c0-0.1,0-0.1,0-0.2s0-0.1-0.1-0.2
			c0-0.1-0.1-0.1-0.1-0.2s-0.1-0.1-0.2-0.2c-0.1,0-0.1-0.1-0.2-0.1c-0.1,0-0.1,0-0.2,0h-0.2V29.7z"/>
		<path class="st0" d="M54,27.5v0.3h-0.6v1.9H54V30h-1.5v-0.3h0.6v-1.9h-0.6v-0.3H54z"/>
		<path class="st0" d="M56.6,29.2c0,0.1,0,0.2-0.1,0.3c0,0.1-0.1,0.2-0.1,0.2s-0.1,0.1-0.2,0.2c-0.1,0.1-0.1,0.1-0.2,0.1
			s-0.2,0-0.3,0c-0.1,0-0.2,0-0.3,0c-0.1,0-0.2-0.1-0.2-0.1c-0.1-0.1-0.1-0.1-0.2-0.2c0-0.1-0.1-0.1-0.1-0.2c0-0.1-0.1-0.2-0.1-0.3
			s0-0.2,0-0.3v-0.3c0-0.1,0-0.2,0-0.3c0-0.1,0-0.2,0.1-0.3s0.1-0.2,0.1-0.2c0-0.1,0.1-0.1,0.2-0.2c0.1-0.1,0.1-0.1,0.2-0.1
			c0.1,0,0.2,0,0.3,0c0.1,0,0.2,0,0.3,0c0.1,0,0.2,0.1,0.2,0.1c0.1,0.1,0.1,0.1,0.2,0.2c0,0.1,0.1,0.1,0.1,0.2c0,0.1,0,0.2,0.1,0.3
			s0,0.2,0,0.3v0.3C56.6,29,56.6,29.1,56.6,29.2z M56.3,28.4c0-0.1,0-0.1,0-0.2c0-0.1,0-0.1-0.1-0.2c0-0.1-0.1-0.1-0.1-0.1
			c0,0-0.1-0.1-0.1-0.1c-0.1,0-0.1,0-0.2,0c-0.1,0-0.1,0-0.2,0c-0.1,0-0.1,0.1-0.1,0.1c0,0-0.1,0.1-0.1,0.1c0,0.1,0,0.1-0.1,0.2
			c0,0.1,0,0.1,0,0.2c0,0.1,0,0.1,0,0.2v0.3c0,0.1,0,0.1,0,0.2c0,0.1,0,0.1,0,0.2c0,0.1,0,0.1,0.1,0.2c0,0.1,0.1,0.1,0.1,0.1
			c0,0,0.1,0.1,0.1,0.1s0.1,0,0.2,0s0.1,0,0.2,0s0.1-0.1,0.1-0.1c0,0,0.1-0.1,0.1-0.1c0-0.1,0-0.1,0.1-0.2c0-0.1,0-0.1,0-0.2
			s0-0.1,0-0.2v-0.3C56.3,28.6,56.3,28.5,56.3,28.4z"/>
	</g>
</g>
</svg>
